{"title":"Sirf Tum 1999 Hindi DvDrip 720p x264 Untouched AC3...Hon3y","uid":7738628,"size":2985283583,"categoryP":"video","categoryS":"hd___movies","magnet":"?xt=urn:btih:c63025425533f1f2fff31355d9663843f148f1b8&amp;dn=Sirf+Tum+1999+Hindi+DvDrip+720p+x264+Untouched+AC3...Hon3y&amp;tr=udp%3A%2F%2Ftracker.openbittorrent.com%3A80&amp;tr=udp%3A%2F%2Fopen.demonii.com%3A1337&amp;tr=udp%3A%2F%2Ftracker.coppersurfer.tk%3A6969&amp;tr=udp%3A%2F%2Fexodus.desync.com%3A6969","seeders":1,"leechers":0,"uploader":"honey8ee","files":-1,"time":1350560354,"description":" &lt;a href=&quot;http://www.imdb.com/title/tt0244794/&quot; rel=&quot;nofollow&quot; target=&quot;_NEW&quot;&gt;http://www.imdb.com/title/tt0244794/&lt;/a&gt;\n &lt;a href=&quot;\nhttp://en.wikipedia.org/wiki/Sirf_Tum&quot; rel=&quot;nofollow&quot; target=&quot;_NEW&quot;&gt;\nhttp://en.wikipedia.org/wiki/Sirf_Tum&lt;/a&gt;\n\nSource                                   : DVD9\nFormat                                   : Matroska\nFormat version                           : Version 2\nFile size                                : 2.76 GiB\nDuration                                 : 2h 41mn\nOverall bit rate mode                    : Variable\nOverall bit rate                         : 2 443 Kbps\n\nVideo\nID                                       : 1\nFormat                                   : AVC\nFormat/Info                              : Advanced Video Codec\nFormat profile                           : &lt;a class=&quot;__cf_email__&quot; href=&quot;/cdn-cgi/l/email-protection&quot; data-cfemail=&quot;a0e8c9c7c8e0ec948e91&quot;&gt;[email&amp;#160;protected]&lt;/a&gt;&lt;script cf-hash='f9e31' type=&quot;text/javascript&quot;&gt;\n/* &lt;![CDATA[ */!function(){try{var t=&quot;currentScript&quot;in document?document.currentScript:function(){for(var t=document.getElementsByTagName(&quot;script&quot;),e=t.length;e--;)if(t[e].getAttribute(&quot;cf-hash&quot;))return t[e]}();if(t&amp;&amp;t.previousSibling){var e,r,n,i,c=t.previousSibling,a=c.getAttribute(&quot;data-cfemail&quot;);if(a){for(e=&quot;&quot;,r=parseInt(a.substr(0,2),16),n=2;a.length-n;n+=2)i=parseInt(a.substr(n,2),16)^r,e+=String.fromCharCode(i);e=document.createTextNode(e),c.parentNode.replaceChild(e,c)}}}catch(u){}}();/* ]]&gt; */&lt;/script&gt;\nFormat settings, CABAC                   : Yes\nFormat settings, ReFrames                : 4 frames\nMuxing mode                              : Header stripping\nCodec ID                                 : V_MPEG4/ISO/AVC\nDuration                                 : 2h 41mn\nBit rate mode                            : Variable\nBit rate                                 : 2 000 Kbps\nMaximum bit rate                         : 4 000 Kbps\nWidth                                    : 1 280 pixels\nHeight                                   : 544 pixels\nDisplay aspect ratio                     : 2.35:1\nOriginal display aspect ratio            : 2.35:1\nFrame rate                               : 24.000 fps\nColor space                              : YUV\nChroma subsampling                       : 4:2:0\nBit depth                                : 8 bits\nScan type                                : Progressive\nBits/(Pixel*Frame)                       : 0.120\nStream size                              : 2.20 GiB (80%)\n\nAudio\nID                                       : 2\nFormat                                   : AC-3\nBit rate mode                            : Constant\nBit rate                                 : 448 Kbps\nChannel(s)                               : 6 channels\nChannel positions                        : Front: L C R, Side: L R, LFE\nSampling rate                            : 48.0 KHz\nBit depth                                : 16 bits\nCompression mode                         : Lossy\nStream size                              : 517 MiB (18%)\n\nSample                                       : Yes\n &lt;a href=&quot;\nhttp://www.freeimgsharing.com/images/40045291706596654689.png&quot; rel=&quot;nofollow&quot; target=&quot;_NEW&quot;&gt;\nhttp://www.freeimgsharing.com/images/40045291706596654689.png&lt;/a&gt;\n &lt;a href=&quot;\nhttp://www.freeimgsharing.com/images/43064691225905837489.png&quot; rel=&quot;nofollow&quot; target=&quot;_NEW&quot;&gt;\nhttp://www.freeimgsharing.com/images/43064691225905837489.png&lt;/a&gt;\n &lt;a href=&quot;\nhttp://www.freeimgsharing.com/images/65800005943695450699.png&quot; rel=&quot;nofollow&quot; target=&quot;_NEW&quot;&gt;\nhttp://www.freeimgsharing.com/images/65800005943695450699.png&lt;/a&gt;\n &lt;a href=&quot;\nhttp://www.freeimgsharing.com/images/27847196461600717986.png&quot; rel=&quot;nofollow&quot; target=&quot;_NEW&quot;&gt;\nhttp://www.freeimgsharing.com/images/27847196461600717986.png&lt;/a&gt;\n &lt;a href=&quot;\nhttp://www.freeimgsharing.com/images/29819499129410006704.png&quot; rel=&quot;nofollow&quot; target=&quot;_NEW&quot;&gt;\nhttp://www.freeimgsharing.com/images/29819499129410006704.png&lt;/a&gt;\n &lt;a href=&quot;\nhttp://www.freeimgsharing.com/images/20400341553156594656.png&quot; rel=&quot;nofollow&quot; target=&quot;_NEW&quot;&gt;\nhttp://www.freeimgsharing.com/images/20400341553156594656.png&lt;/a&gt;\n &lt;a href=&quot;\nhttp://www.freeimgsharing.com/images/34042108519110156192.png&quot; rel=&quot;nofollow&quot; target=&quot;_NEW&quot;&gt;\nhttp://www.freeimgsharing.com/images/34042108519110156192.png&lt;/a&gt;\n &lt;a href=&quot;\nhttp://www.freeimgsharing.com/images/37261687753184445826.png&quot; rel=&quot;nofollow&quot; target=&quot;_NEW&quot;&gt;\nhttp://www.freeimgsharing.com/images/37261687753184445826.png&lt;/a&gt;\n &lt;a href=&quot;\nhttp://www.freeimgsharing.com/images/93883588847140647141.png&quot; rel=&quot;nofollow&quot; target=&quot;_NEW&quot;&gt;\nhttp://www.freeimgsharing.com/images/93883588847140647141.png&lt;/a&gt;\n &lt;a href=&quot;\nhttp://www.freeimgsharing.com/images/89881955640245555875.png&quot; rel=&quot;nofollow&quot; target=&quot;_NEW&quot;&gt;\nhttp://www.freeimgsharing.com/images/89881955640245555875.png&lt;/a&gt;","torrent":{"xt":"urn:btih:c63025425533f1f2fff31355d9663843f148f1b8","amp;dn":"Sirf+Tum+1999+Hindi+DvDrip+720p+x264+Untouched+AC3...Hon3y","amp;tr":["udp%3A%2F%2Ftracker.openbittorrent.com%3A80","udp%3A%2F%2Fopen.demonii.com%3A1337","udp%3A%2F%2Ftracker.coppersurfer.tk%3A6969","udp%3A%2F%2Fexodus.desync.com%3A6969"],"infoHash":"c63025425533f1f2fff31355d9663843f148f1b8","infoHashBuffer":{"type":"Buffer","data":[198,48,37,66,85,51,241,242,255,243,19,85,217,102,56,67,241,72,241,184]},"announce":[],"urlList":[]}}